<?xml version="1.0" encoding="UTF-8" standalone="no"?>
<!-- Created with Inkscape (http://www.inkscape.org/) -->

<svg
   width="134.186mm"
   height="134.186mm"
   viewBox="0 0 134.18601 134.18601"
   version="1.1"
   id="svg1"
   xml:space="preserve"
   sodipodi:docname="icon.svg"
   inkscape:version="1.3 (0e150ed6c4, 2023-07-21)"
   xmlns:inkscape="http://www.inkscape.org/namespaces/inkscape"
   xmlns:sodipodi="http://sodipodi.sourceforge.net/DTD/sodipodi-0.dtd"
   xmlns:xlink="http://www.w3.org/1999/xlink"
   xmlns="http://www.w3.org/2000/svg"
   xmlns:svg="http://www.w3.org/2000/svg"><sodipodi:namedview
     id="namedview1"
     pagecolor="#ffffff"
     bordercolor="#000000"
     borderopacity="0.25"
     inkscape:showpageshadow="2"
     inkscape:pageopacity="0.0"
     inkscape:pagecheckerboard="0"
     inkscape:deskcolor="#d1d1d1"
     inkscape:document-units="mm"
     inkscape:zoom="1.0242632"
     inkscape:cx="91.773285"
     inkscape:cy="216.25301"
     inkscape:window-width="1920"
     inkscape:window-height="1009"
     inkscape:window-x="1072"
     inkscape:window-y="317"
     inkscape:window-maximized="1"
     inkscape:current-layer="layer1" /><defs
     id="defs1"><linearGradient
       id="g"
       x1="1024.8822"
       x2="1219.183"
       y1="330.95755"
       y2="330.95755"
       xlink:href="#b"
       gradientTransform="matrix(0.07933873,0,0,0.1723505,79.583302,117.98199)"
       gradientUnits="userSpaceOnUse" /><linearGradient
       id="a"><stop
         stop-color="#dc0000"
         offset="0"
         id="stop1" /><stop
         stop-color="#ffb200"
         offset="1"
         id="stop2" /></linearGradient><linearGradient
       id="d"
       x1="-290.02884"
       x2="464.3363"
       y1="-256.32339"
       y2="556.45697"
       xlink:href="#c"
       gradientTransform="matrix(0.08616771,0,0,0.15869134,79.583302,117.98199)"
       gradientUnits="userSpaceOnUse" /><linearGradient
       id="f"
       x1="217.68932"
       x2="390.28601"
       y1="806.00977"
       y2="209.35815"
       xlink:href="#a"
       gradientTransform="matrix(0.08687202,0,0,0.15740476,79.583302,117.98199)"
       gradientUnits="userSpaceOnUse" /><linearGradient
       id="e"
       x1="-85.792183"
       x2="119.3917"
       y1="-126.5593"
       y2="-126.5593"
       xlink:href="#b"
       gradientTransform="matrix(0.071815,0,0,0.19040688,79.583302,117.98199)"
       gradientUnits="userSpaceOnUse" /><linearGradient
       id="c"><stop
         stop-color="#fff"
         offset="0"
         id="stop3" /><stop
         stop-color="#fff"
         stop-opacity="0"
         offset="1"
         id="stop4" /></linearGradient><linearGradient
       id="b"><stop
         stop-color="#fff"
         stop-opacity=".449"
         offset="0"
         id="stop5" /><stop
         stop-color="#fff"
         stop-opacity="0"
         offset="1"
         id="stop6" /></linearGradient><linearGradient
       id="h"
       x1="1550.5303"
       x2="547.27368"
       y1="219.85764"
       y2="726.43738"
       xlink:href="#c"
       gradientTransform="matrix(0.09672695,0,0,0.14136774,79.583302,117.98199)"
       gradientUnits="userSpaceOnUse" /><linearGradient
       id="n"
       x1="-107.133"
       x2="214.12653"
       y1="774.48218"
       y2="-132.08517"
       xlink:href="#a"
       gradientTransform="scale(0.81457518,1.2276338)"
       gradientUnits="userSpaceOnUse" /><linearGradient
       id="m"
       x1="99.661819"
       x2="-64.146729"
       y1="550.49487"
       y2="200.35046"
       xlink:href="#a"
       gradientTransform="scale(0.609551,1.6405518)"
       gradientUnits="userSpaceOnUse" /><linearGradient
       id="i"
       x1="520.32922"
       x2="880.64465"
       y1="740.7984"
       y2="274.23898"
       xlink:href="#a"
       gradientTransform="matrix(0.10122369,0,0,0.13508765,79.583302,117.98199)"
       gradientUnits="userSpaceOnUse" /><linearGradient
       id="l"
       x1="-896.22205"
       x2="-238.1087"
       y1="-81.435486"
       y2="627.07971"
       xlink:href="#c"
       gradientTransform="matrix(0.07815821,0,0,0.17495373,79.583302,117.98199)"
       gradientUnits="userSpaceOnUse" /><linearGradient
       id="j"
       x1="-1108.2329"
       x2="533.37244"
       y1="-396.08893"
       y2="871.44678"
       gradientTransform="matrix(0.10193212,0,0,0.13414879,79.583302,117.98199)"
       gradientUnits="userSpaceOnUse"><stop
         stop-color="#fff"
         offset="0"
         id="stop7" /><stop
         stop-color="#fff"
         stop-opacity="0"
         offset="1"
         id="stop8" /></linearGradient><linearGradient
       id="k"
       x1="769.52936"
       x2="945.51068"
       y1="-65.911453"
       y2="-65.911453"
       xlink:href="#b"
       gradientTransform="matrix(0.07777416,0,0,0.17581765,79.583302,117.98199)"
       gradientUnits="userSpaceOnUse" /><clipPath
       clipPathUnits="userSpaceOnUse"
       id="clipPath16"><path
         d="m 97.303702,82.816645 -0.237925,0.212059 -0.509835,-0.04605 -0.27192,0.857458 -0.509837,0.543971 -0.739267,0.04606 0.110465,0.258159 -0.305906,-0.212062 0.110465,-0.09222 -0.543827,0.341144 0.118963,0.940435 -0.04249,0.165962 0.07647,0.16595 0.07647,-0.16595 -0.03399,0.212047 -0.356888,0.719164 0.08497,1.1064 -0.280411,0.636167 -0.229428,0.516318 v 0.165962 h -0.07647 l -0.237925,0.894334 -0.04248,0.08297 -0.152952,0.507094 0.03399,0.129086 0.671289,-0.03691 -0.161449,0.248936 -0.662792,-0.08297 -0.34839,1.447532 0.03399,0.119862 0.161449,-0.08297 -0.118962,0.129086 0.271912,0.129073 0.152952,0.387241 0.203938,-0.433341 h 0.03399 l -0.152955,0.682279 -0.50984,-0.295047 -0.161449,0.295047 0.118965,0.507094 -0.314403,0.175182 0.280414,-0.212058 -0.35689,-1.23547 0.161449,-0.212059 -0.237925,-0.04606 -0.195439,0.21205 -0.824241,1.788673 0.195439,0.08297 0.07647,-0.08297 0.237925,0.175182 -0.237925,-0.04605 -0.07647,0.129074 0.04249,-0.129074 -0.390877,-0.04605 -0.943203,2.461708 0.237925,0.175182 0.467353,-0.175182 v -0.16595 h -0.314401 l 0.152952,-0.562426 0.161449,0.138305 0.50984,-0.04605 -0.50984,0.304255 0.467353,0.248939 0.390877,0.516314 0.433364,-0.17517 0.118963,0.129073 0.314401,-0.212062 0.271914,0.258159 -0.34839,-0.04605 -0.161449,0.165959 -0.07647,-0.119862 -0.509842,0.378021 0.39088,0.165962 0.271911,0.470217 0.39088,-0.08296 -0.110465,0.03691 0.110465,0.09222 -0.467353,0.119865 0.195436,1.23547 -0.348388,-0.590082 0.03398,-0.81135 -0.271914,-0.341144 -0.237926,0.08296 v -0.212059 l -0.543829,1.318456 -0.671289,0.470217 -0.110465,-0.08296 -0.237925,0.341132 -0.118963,0.295048 0.237926,0.42411 v 0.89433 l 0.467353,0.76526 -0.314402,0.59007 0.118963,0.083 0.271915,-0.24894 h 0.195438 l -0.390877,0.24894 0.433364,0.34114 -0.152952,-0.0369 0.07647,0.29503 -0.161449,-0.21205 -0.118963,0.083 0.08497,-0.21206 -0.314401,0.12908 -0.16145,-0.17518 -0.705278,1.19859 -0.586316,2.41564 -0.03399,0.59929 0.824241,1.22626 0.152952,0.81135 -0.152952,-0.0461 0.03399,0.68228 -0.586315,1.61349 0.390877,2.89507 0.314401,0.59007 0.195438,0.89434 -0.314401,0.50709 0.07647,0.34115 -0.348388,0.34113 -0.04249,0.0369 -0.314401,0.97731 -0.03399,0.17518 -0.586316,1.44753 -0.586316,2.71067 -0.118962,0.17518 0.34839,1.22625 -0.543829,0.94043 -0.433364,1.40144 -0.07647,0.12908 0.04248,0.55319 -0.280412,0.54399 -0.237925,0.25815 -0.195439,0.76526 -0.03398,0.0461 -0.747767,0.80214 -0.07647,-0.0369 -0.195438,0.67305 -0.705279,0.81136 -0.07647,0.34114 h 0.152952 l -0.271914,1.01419 -0.07647,0.17518 -0.314401,1.40143 -0.433364,0.63618 -0.900717,0.34113 -0.705278,0.5532 -0.195438,0.0369 -0.815744,0.43334 0.03399,-0.17518 -0.586316,0.25816 -0.943203,0.083 h -0.152952 l -0.781755,0.12907 -0.628802,-0.12907 -0.314401,-0.25817 -0.152952,-0.42411 -0.671289,-0.25816 -0.110465,-0.21206 -0.433364,0.0461 -0.195438,-0.21206 -0.50984,-0.12909 -0.237925,-0.29503 -0.07647,0.25816 -0.03398,-0.38725 -0.314403,-0.16595 -0.475851,-0.5993 -0.195438,0.12909 0.04249,-0.16597 -0.195438,-0.12908 -0.824241,-0.083 -0.424867,-0.38724 -0.509839,-1.0142 -0.118963,-0.81134 0.118963,-0.42413 -0.433364,-0.21205 -0.356888,-0.47022 v -0.29504 l -1.911899,-0.63618 -0.866727,-0.5993 -1.011182,0.083 -0.824241,-0.37801 h -0.161449 -0.03399 l -1.181129,-0.55321 v -0.046 l -0.34839,-0.16596 -0.909214,-1.00497 -1.521022,73.22482 19.33992,1.02341 -1.206621,23.19739 21.889123,1.82555 13.85915,1.53051 13.96111,1.82555 0.56082,-0.37801 0.31439,-0.72838 0.3569,-0.009 1.52102,-0.9681 0.16145,0.12908 0.66279,-0.73759 0.9602,0.29503 0.56932,0.10136 0.85823,0.083 1.06216,0.0276 1.17264,0.0646 0.50983,-0.17519 0.91772,1.06952 0.49284,0.083 v 0.11986 l 0.27192,-0.083 0.3144,0.22127 0.78175,-0.22127 0.70529,0.55319 h 0.19542 l 0.15296,0.38724 0.50984,0.24894 0.0765,0.76525 0.35689,-0.083 0.73926,0.68228 0.19544,0.57163 -0.11047,0.91277 0.19544,0.38724 -0.085,0.16595 0.50984,0.21206 0.78175,-0.71915 v -0.38723 l 0.35689,-0.46101 0.62881,-0.0922 0.5863,-0.37801 0.23793,0.76525 0.19544,-0.0461 0.15295,0.12908 0.15295,-0.37803 0.67129,0.16596 0.54384,-0.34113 -0.11897,-0.12908 0.31441,-0.84823 0.19543,-0.16596 -0.034,-0.21206 -0.35688,-0.30426 v -0.5071 l -0.19544,-0.29504 0.0765,-0.25816 0.16145,-0.083 v 0.17517 l 0.19544,0.0369 0.39088,-0.38724 0.58631,-0.16596 0.35689,0.16596 0.66279,-0.54397 0.46735,0.11985 0.23792,-0.24894 0.0425,-0.25815 0.15294,0.046 0.15295,-0.25816 0.28042,-0.0461 0.19543,0.12907 -0.11895,0.30427 0.27191,0.33191 0.31441,-0.50709 0.11895,0.38724 0.62031,0.50709 0.35689,-0.0461 1.11314,0.0646 0.91771,0.0184 0.32291,-0.11986 0.0765,-0.34113 0.34839,0.21206 0.3144,-0.21206 0.46735,0.21206 0.86673,-0.55321 0.31441,0.21207 0.10195,-0.083 h -0.14446 l -0.27192,-0.29503 -0.0424,-0.30427 -0.11896,0.0461 0.11896,-0.083 -0.11896,-1.74257 0.16144,-0.63617 -0.23792,-0.12909 -0.034,-0.63617 -0.23793,-0.34114 v -0.5071 l 0.15296,-0.083 -0.19544,-0.30426 0.11896,-0.25815 h -0.19543 l -0.0765,-0.42412 -0.0765,0.12908 -0.28041,-0.083 -0.034,-0.59008 -0.2719,0.16596 -0.28042,0.083 0.35689,-0.16596 0.15295,-0.42412 -0.43336,-0.30426 -0.0765,-0.42411 -0.22942,0.0461 0.27191,-0.083 -0.0424,-0.34114 0.11895,0.25816 0.19544,0.0369 0.11897,-0.37802 v -0.17517 l -0.46736,-0.0369 v -0.55319 l 0.0765,0.21206 0.19544,-0.29504 0.50984,-0.17518 -0.19544,-0.083 -0.11896,-0.47021 -0.11897,0.0461 0.0765,-0.21206 -0.19544,-0.0461 0.0425,-0.12909 0.15295,0.0922 -0.11047,-0.30426 0.22943,-0.21205 -0.0765,0.5532 0.46735,1.02341 0.27191,-0.21206 -0.3059,-1.53052 0.11046,-0.55319 -0.19544,0.55319 0.11897,-0.55319 h 0.0765 0.11897 l 0.0424,-0.97731 -0.55232,-0.50709 0.35688,0.16595 0.0765,-0.89433 0.35689,-1.09718 h -0.50984 l 0.22943,-0.0461 0.11895,-1.14328 1.05368,-2.17591 -0.22944,0.12909 -0.2719,-0.21206 -0.11897,-0.89434 -0.19543,-0.11986 0.15294,0.16596 -0.19544,0.17518 0.0765,0.29504 -0.0765,0.16596 -0.19544,-0.083 0.19544,0.25816 -0.15294,0.0369 -0.16145,0.38723 -0.11897,-0.21206 0.28042,-0.25815 -0.085,-0.24894 0.085,-0.009 v -0.24894 l -0.0424,-0.009 0.0424,-0.29503 -0.19544,-0.24894 -0.23792,0.0369 v 0.12909 l -0.0426,-0.21206 h 0.28042 l 0.034,-0.16597 -0.27192,-0.12908 -0.19544,-0.34113 0.11896,-0.12909 -0.31439,-0.11985 0.11895,-0.17518 0.19544,0.083 -0.19544,-0.97731 0.19544,-0.0369 -0.11896,-0.12908 0.23793,0.046 v -0.25816 h -0.0255 l 0.17845,-0.21206 -0.23793,0.0369 0.23793,-0.12908 0.0765,0.0922 0.16146,-0.25816 -0.74778,0.37801 -0.58631,-0.0369 0.58631,-0.0461 0.23793,-0.37802 h 0.22943 l -0.27191,-0.17518 0.19543,0.0461 0.16146,0.16595 v -1.18937 l -0.39088,-0.083 -0.085,-0.29504 -0.19544,0.16595 -0.81574,-0.29503 -0.23793,-0.55319 -0.39088,-0.083 -0.085,0.16596 0.085,-0.21205 -0.11897,-0.0369 0.55233,0.083 0.11046,-0.12908 -0.46735,-0.71915 -0.3144,-0.84824 0.0765,-0.29504 -0.22943,0.083 0.27191,-0.17518 -0.0765,-0.80213 -0.3144,-0.55321 h -0.11896 l -0.0765,0.29505 h -0.0425 l 0.0425,-0.47022 -0.55233,-0.16596 -0.34839,-0.47022 -0.16144,-0.21205 0.15294,0.21205 -0.11046,-0.083 -0.11046,0.0553 0.0679,-0.0553 -0.50135,-0.76525 -0.23792,-0.55319 -0.16146,0.083 0.11897,-0.11986 -0.34839,-0.76526 -0.11896,-1.44753 -0.31441,-0.76525 -0.085,0.16595 h -0.22943 l -0.27192,-0.46099 -0.27191,-0.0922 0.27191,0.0461 -0.19543,-0.68228 0.11896,-0.11985 -0.16145,-0.12908 -0.0424,0.11986 -0.54383,-0.4149 -0.23792,-0.0461 -0.034,0.25816 0.19544,-0.0461 v 0.21206 l 0.23792,0.21205 0.034,0.12909 -0.11046,-0.0461 0.0765,0.29504 -0.27192,-0.37802 -0.39937,-0.25816 -0.15296,0.25816 0.034,0.0461 -0.11047,0.29503 -0.11897,-0.50709 -0.23792,-0.0922 -0.11896,0.21206 -0.11047,-0.37801 -0.0424,0.47022 -0.16145,-0.47022 0.11896,-0.083 -0.31439,-0.63618 h -0.11047 l -0.11897,-0.59929 -0.23792,0.29503 0.0765,-0.46099 -0.78176,-0.47022 -0.15295,-0.34113 0.0765,-0.34115 -0.11897,0.0922 -0.11897,-0.35036 0.11897,-0.0737 -0.19544,-0.13831 h 0.16145 l -0.43336,-0.33191 -0.15295,-0.5993 v 0.42412 h -0.11897 l 0.0765,-0.34114 -0.23792,-0.16596 -0.034,0.34114 -0.23793,0.083 0.11897,0.12907 -0.16145,-0.12907 -0.034,0.50709 -0.11896,-0.50709 -0.34839,-0.50711 0.19544,0.0369 v -0.12908 l -0.51834,-0.42412 0.43336,0.0922 0.11897,-0.17517 -0.3144,-0.63618 -0.0765,-0.68228 -0.16144,-0.083 v -0.12909 l 0.20392,0.12909 0.27193,-0.37802 -0.0425,-0.29504 -0.30589,-0.17518 h 0.15295 l 0.0424,-0.29503 -0.28041,-0.25816 0.3144,-1.31846 -0.11896,0.25816 0.11896,-0.42412 -0.19544,0.16596 -0.0765,-0.34113 0.46735,0.17517 -0.034,-0.42412 0.46735,-1.49363 -0.35689,-0.33192 0.085,-0.94044 -0.16145,-0.0369 0.11897,0.24893 -0.27193,0.30427 0.0765,0.33191 -0.27192,-0.0369 -0.11896,-0.25816 0.23792,0.21206 v -0.59008 l -0.28041,0.0369 0.085,-0.11985 -0.20393,-0.55321 0.16145,0.11987 0.0424,-0.11987 0.22943,0.37803 0.27191,-0.5071 -0.39087,-0.21206 -0.0765,-0.6454 -0.16145,0.13831 0.12746,0.24893 -0.085,0.38724 -0.0424,-0.21206 -0.19544,0.11986 0.085,-0.16596 0.11047,-0.0461 -0.27192,-0.21206 0.19543,-0.0461 -0.11895,-0.24894 0.11895,0.12909 0.0765,-0.17518 -0.54384,-0.29504 -0.27191,0.63617 0.15295,0.25816 -0.15295,-0.083 0.034,0.12908 0.3144,0.21206 -0.34839,-0.12908 0.42487,0.461 -0.19544,-0.16596 -0.11047,0.0461 0.58632,0.42412 -0.0424,0.16596 -0.15296,-0.12908 v 0.17518 l -0.085,-0.34113 -0.27192,-0.083 0.19544,0.76526 0.27192,0.083 h -0.22944 l 0.11897,0.29503 -0.39088,-0.76525 -0.23792,0.21206 0.0765,-0.16596 -0.15294,-0.17518 0.15294,0.046 -0.34838,-0.34114 0.11895,0.42412 -0.11895,-0.37802 -0.23793,-0.0461 -0.23792,-0.42412 -0.62031,-0.55319 v -0.17518 l -0.55233,-0.11985 -0.22943,-0.30427 0.11046,-0.24894 -0.19543,-0.21206 v -0.34113 l -0.34839,-0.38724 -0.0424,-0.5071 -0.22944,-0.24893 -0.62879,0.37802 -0.3484,1.02341 0.3484,0.11986 -0.39088,0.046 0.54382,2.34187 0.16145,0.21206 -0.35689,-0.30427 -0.15294,-0.67305 -0.46736,-0.47022 -0.43337,-0.94044 -0.19543,0.34115 -0.70528,0.47021 0.0765,0.083 -0.23793,-0.0461 -0.27192,0.56241 0.19544,-0.63617 0.39088,-0.25816 0.0765,-0.5532 -0.0765,-0.34113 -0.27191,0.16596 -0.19544,-0.11986 h 0.23793 l -0.16146,-0.47022 -0.42486,-0.0461 -0.23793,0.29504 -0.16145,-0.083 0.39938,-0.21206 0.30591,-0.16596 -0.22944,-0.68227 -0.11896,0.0461 0.15296,-0.17517 -0.22943,-0.80214 0.0765,-0.34113 -0.35689,-0.84824 0.11897,-0.6454 h -0.22943 l 0.19544,-0.11986 -0.16145,-0.17518 -0.034,-0.46099 0.19544,-0.0922 0.15294,0.12908 0.0425,-0.12908 -0.19544,-0.11986 -0.0426,-0.5993 0.43337,-0.68227 -0.16145,-0.11985 -0.19544,0.33191 -0.034,-0.21206 h -0.23793 l -0.11896,-0.16595 0.16145,-0.34115 -0.31441,0.083 -0.0424,-0.24895 -0.3144,0.16596 -0.034,0.21206 v -0.34113 l -0.16144,-0.12909 h 0.23792 l 0.0425,-0.33192 0.22943,0.083 v -0.12908 l -0.42487,-0.21204 h 0.34839 l -0.0424,-0.93121 h -0.19544 l -0.11047,-0.25816 -0.50983,0.50711 0.15294,-0.29505 -0.19544,-0.0461 0.27192,-0.24894 -0.15295,-0.29503 -0.19544,0.0369 0.15295,-0.083 0.0425,0.0461 0.0765,0.083 0.11897,-0.55319 -0.31441,-0.0922 h 0.34839 l 0.0425,0.17518 0.11896,-0.5993 h -0.16145 l -0.19544,-0.33191 -0.0765,-0.25816 -0.15295,-0.083 -0.0765,0.24895 -0.16145,-0.46101 -0.42486,0.0369 -0.16146,0.17518 0.0765,-0.42411 0.11895,0.0369 -0.11895,-0.21206 h 0.31439 l -0.15295,-0.24894 -0.19544,0.083 -0.3144,-0.34114 -0.27191,0.083 -0.16145,-0.29504 -0.39088,0.29504 0.0765,-0.59008 -0.3144,-0.0922 0.0765,-0.16596 h 0.28042 l -0.70529,-0.68228 v -0.29504 l -0.27191,0.0461 0.34839,-0.30426 -0.58632,-0.80213 0.23793,0.16595 0.30591,-0.47022 -0.19544,-0.50709 0.55232,0.38724 0.27191,-0.21205 v -0.21203 l 0.11897,0.63618 0.19544,0.25815 0.50983,0.11986 -0.27191,-0.37801 0.19544,-0.0922 -0.0765,-0.083 h -0.16144 l -0.22943,-0.34114 0.034,-0.29504 -0.11897,-0.083 0.16145,-0.21206 -0.46735,-0.5532 0.22943,-0.0461 -0.15295,-0.083 v -0.29504 l -0.16145,-0.0461 -0.15295,0.30427 -0.35689,-0.0461 0.0765,-0.29505 -0.15296,0.0369 v -0.16595 l 0.15296,-0.34115 -0.22944,0.29505 -0.0424,-0.37802 -0.0765,0.37802 -0.19543,-0.083 0.15295,-0.25816 -0.27192,0.12908 0.11897,-0.24894 -0.19544,0.0369 v -0.84824 l -0.23793,0.21206 -0.46735,-0.34115 -0.11897,0.42412 0.31441,0.12909 -0.35689,0.23971 -0.11047,-0.0276 -0.0424,0.17517 -0.0765,-0.0461 -0.0424,-0.16596 -0.42487,-0.0922 0.034,-0.083 -0.42486,-0.46099 0.11046,-0.0922 -0.34839,-0.29504 0.0765,-0.16596 0.19544,0.0369 -0.034,-0.37802 -0.16146,0.0369 -0.11895,-0.24894 -0.46736,-0.12908 0.0765,0.16596 -0.31441,-0.21206 -0.15295,-0.5071 -0.67129,0.25816 -0.3059,-0.0922 -0.28041,-0.34115 0.085,0.22128 -0.23792,-0.43334 -0.0765,-0.93121 -0.16145,-0.25816 -0.46735,-0.083 -0.0765,0.5071 0.19544,0.51632 0.15295,0.0461 -0.11896,0.0369 -0.73927,-0.21206 -0.50984,-0.84824 -0.11896,0.12909 0.0765,-0.25816 0.085,0.0461 0.034,-0.25816 -0.42486,-0.16596 0.39087,-0.0461 -0.085,-0.38724 -0.22942,-0.11987 0.22942,0.083 v -0.17519 l -0.11045,-0.37802 -0.051,0.0184 -0.034,-0.10147 -0.30589,-0.55319 -0.17845,-0.53476 -0.13596,0.23971 -0.86673,-0.25816 -0.42486,0.25816 -0.0425,-0.21206 -0.39087,-0.12907 -0.11896,0.21206 0.0424,-0.25816 h -0.19544 l -0.085,0.34113 -0.0765,-0.50709 -0.42487,-0.76525 0.15296,-0.29505 -0.27191,-0.59929 0.034,0.21206 -0.42486,0.68228 -0.55233,-0.083 -0.23793,-0.25815 -0.11046,0.046 0.0765,-0.21206 -0.3144,-0.12907 -0.0765,-0.43335 -0.82425,-0.083 -1.2576,-1.0142 -1.20661,-1.78866 0.6203,-1.69648 -0.19544,-0.0461 0.19544,-0.16596 -0.034,-0.30426 -0.0765,-0.11986 0.19544,0.0462 -0.0424,-0.25817 -0.11897,-0.0922 -0.034,0.12909 -0.11897,-0.21206 -0.14445,0.0369 -0.0935,-0.16596 -0.23793,-0.0369 -0.15294,0.16596 0.11896,-0.24894 -0.19544,-0.0922 0.11896,-0.0369 -0.085,-0.17518 -0.19544,0.0922 -0.11045,-0.76526 v 0.29504 l -0.79026,-1.31845 -0.0765,-0.63618 0.23792,-0.59007 0.19544,-0.38724 -0.19544,-0.083 0.19544,0.0369 0.11896,-0.37801 0.034,0.12907 0.19544,-0.083 v -0.56241 l 0.19543,-0.33193 -0.19543,-0.59929 0.19543,-0.083 -0.0765,-0.50711 0.3569,-0.42411 -0.085,-0.38724 -0.15295,0.25816 -0.034,-0.0184 0.15296,-0.2766 -0.39088,-0.68226 0.11897,-0.89434 -0.43337,-0.59008 -0.31441,-1.53052 -0.34838,-0.59929 0.0765,-0.50709 0.42487,-0.76527 -0.22943,-0.25815 -0.11896,0.25815 -0.19543,0.0461 -0.15296,-0.30426 -0.50984,0.38724 -0.11896,-0.17518 0.11896,-0.21206 -0.16145,-0.083 -0.19543,-0.5532 -0.22943,-0.21206 -0.085,-0.29503 -0.58631,-0.47022 -0.6288,-1.14327 -0.034,-0.51632 -0.39087,-0.16596 0.0765,-0.93121 0.23793,-0.42412 -0.23793,-0.0922 0.50984,0.046 -0.3144,-0.81136 0.3144,-0.71915 -0.43336,-1.14328 -0.39088,-0.083 0.23793,-0.72838 -0.16145,-0.25815 0.11895,-0.63618 -0.31439,-0.63618 0.0765,-0.55319 -0.69677,-0.461 0.39087,0.083 0.0765,-0.25816 -0.16145,-0.29504 h -0.11046 l 0.42487,-0.81136 -0.0765,-0.21206 0.50983,-0.29503 -0.11896,-0.42412 -0.19545,0.25815 -0.31439,-0.046 -0.11897,-0.84824 -0.19543,-0.21206 0.19543,0.12909 0.28042,-0.5993 0.54382,-0.5532 -0.034,-0.24893 h -0.47585 l -0.39088,-0.6454 0.0765,-0.33192 -0.81574,-0.12908 -0.11896,-0.21206 -0.11897,0.16596 v -0.21206 l -0.23792,0.083 -0.19544,-0.42412 -0.39087,-0.21206 v -0.461 l -0.19544,-0.12907 -0.0765,-0.42412 -0.73926,-0.17518 -0.11897,-0.37803 -0.67129,-0.0461 -0.42486,-0.63617 v -0.34114 l 0.27191,-0.5071 -0.43337,-0.046 0.11897,-0.76525 -0.55233,-0.80214 h -0.19544 l -0.22942,0.50709 -0.35689,0.21206 0.085,0.083 -0.20394,-0.0369 -0.34839,0.21206 -0.43336,-0.083 -0.42487,-0.43334 -0.16144,0.046 v 0.50711 l -0.19544,0.47022 -0.94321,0.68228 -0.54382,-0.0461 -0.11897,0.25816 -0.0765,-0.30426 -0.46735,-0.11986 -0.35689,-0.30426 -0.39088,-0.67305 -0.27192,-1.18937 -0.0765,-1.53052 -0.43336,-0.42412 -0.15294,-0.76525 -0.43336,-0.81136 0.2719,-1.27235 0.23793,-0.37802 -0.3144,-0.046 h 0.27191 l 0.11896,-0.89434 -0.11896,-0.37802 -0.34839,-0.38723 0.034,-1.14328 -0.11046,-0.38724 v -1.53179 l 0.34839,-0.67305 -0.43336,0.12908 -0.22943,-0.12908 -0.3569,0.24893 0.11897,0.30426 -0.19544,0.16596 v -0.16596 l -0.23792,-0.0922 0.16144,-0.083 -0.19544,-0.083 0.034,-0.507095 0.50984,-1.152497 -0.15295,-0.08296 0.27191,-0.387232 -0.85823,-0.543983 -0.23792,-0.470217 -0.23793,0.129085 0.28041,-0.212062 -0.0424,-0.5993 -0.16145,-0.212061 -0.46736,-0.341132 h -0.31439 l 0.085,0.129073 -0.19544,-0.21205 -0.11897,0.175173 -0.16144,-0.175173 0.16144,-1.272344 -0.23792,-0.341135 0.23792,0.175173 0.70529,-1.23547 0.27191,0.04605 0.0765,-0.175182 -0.19544,-0.129074 -0.27191,0.16595 -0.16145,-0.460997 -0.3484,-0.212059 -0.46735,0.295047 -0.39087,-0.04605 -0.824234,-0.802138 0.07646,-1.530506 -0.195438,-1.318455 0.314398,-0.590083 -0.161454,-0.507094 -0.305907,-0.387238 v -1.57662 l -0.47585,-0.977314 -0.314396,0.09222 -0.152955,0.248936 0.152955,-0.424106 -0.195441,-0.129085 -0.348393,0.09222 0.195441,-0.341132 -0.195441,-0.295045 v 0.119863 l -0.237923,-0.119863 -0.11046,0.16596 0.152944,0.42412 -0.237925,-0.212059 -0.110457,0.212059 -0.127468,0.04605 0.161454,-0.894335 0.195439,-0.04606 0.46735,-0.636179 -0.348393,-0.165959 z m 30.717838,70.670895 0.017,-0.0184 -0.0595,-0.11062 z m -0.0424,-0.12908 -0.16994,-0.52553 -0.16145,-0.12909 z m 12.31264,24.96762 h 0.12745 l -0.0765,0.11986 z m 12.64401,14.96397 -0.15295,0.45178 -0.034,-0.34114 z m 2.20081,5.66105 0.11897,0.10137 h -0.23792 z m 1.09617,0.99576 h 0.034 l 0.0425,0.29503 z"
         fill-rule="evenodd"
         stroke="#000000"
         stroke-linecap="round"
         stroke-linejoin="round"
         stroke-width="1.25785"
         id="path16"
         clip-path="none"
         style="fill:#f9f9f9;stroke:#f9f9f9" /></clipPath></defs><g
     inkscape:label="Layer 1"
     inkscape:groupmode="layer"
     id="layer1"
     transform="translate(-58.20987,-95.622787)"><g
       id="g11"
       transform="matrix(0.97303867,0,0,0.89677616,16.587219,21.35501)"
       clip-path="url(#clipPath16)"><g
         stroke="#ffff00"
         id="g9"
         transform="matrix(0.12561294,0,0,0.10885877,79.583302,117.98199)"
         style="fill-rule:evenodd;stroke-width:2.156;stroke-opacity:0.504"><path
           d="m -321.78,597.28 c 102.02,294.98 263.43,451.41 552.74,469.29 318.25,99.817 613.65,-104.29 529.9,-424.6 -38.068,68.531 -62.431,105.78 -127.91,125.14 25.886,-177.29 -140.09,-207.08 -59.386,-397.78 56.34,-117.69 89.84,-262.21 -9.1363,-379.9 -41.113,134.08 -91.362,223.47 -191.86,321.8 10.659,-163.88 98.976,-296.47 45.681,-451.41 7.6135,-104.29 -167.5,-101.31 -169.02,-420.13 -111.16,137.06 -158.36,242.84 -141.61,451.41 -41.113,168.35 -141.61,229.43 -123.34,411.19 -15.227,-101.31 -25.886,-189.21 -4.5682,-263.7 -12.182,-92.368 -24.363,-171.33 -118.77,-236.88 28.932,114.72 62.431,287.53 -36.545,330.74 -27.409,55.123 -164.45,244.33 -13.704,540.8 -44.158,-25.327 -88.317,-32.776 -132.48,-75.98 z"
           fill="url(#n)"
           id="path8"
           style="fill:url(#n)" /><path
           d="M 198.98,1021.9 C -43.13,771.61 -84.24,597.3 75.64,431.94 255.32,119.08 211.16,-77.58 80.2081,-265.29 c 123.34,415.66 -146.18,683.82 -232.97,804.5 -51.772,-156.43 -7.6136,-223.47 63.954,-415.66 -140.09,148.98 -225.36,329.25 -173.59,500.58 94.408,257.74 316.72,314.35 461.38,397.78 z"
           fill="url(#m)"
           id="path9"
           style="fill:url(#m)" /></g><path
         d="m 91.288167,89.052772 c 0.419849,7.73779 3.014459,15.400248 1.826287,23.210868 -1.048052,18.23384 -10.496971,35.38128 -23.541122,49.65484 -2.419933,2.91545 -4.997134,5.7337 -7.490676,8.60398 -3.334396,-9.41977 -1.829176,-19.57716 2.661738,-28.51556 2.364915,-4.77639 4.024764,-9.73382 4.893252,-14.86902 -12.466205,9.6426 -21.263758,22.78632 -24.362629,36.85632 -2.51138,13.01189 2.887339,26.39063 13.06877,36.16941 12.801215,12.80615 31.208535,20.00062 49.048083,26.43309 -10.109077,-12.0572 -24.181746,-22.93546 -27.170077,-38.16806 -2.050004,-8.8451 2.057791,-17.72221 8.908595,-24.33538 7.84189,-9.13521 12.725842,-20.00171 15.627502,-30.97032 3.76814,-14.28554 0.74751,-29.73151 -8.460405,-42.119637 -2.272086,-1.408414 -6.332148,-8.808634 -5.009067,-1.948136 z"
         fill="url(#l)"
         id="path10"
         style="fill:url(#l);fill-rule:evenodd;stroke-width:0.252114;stroke-opacity:0.504" /><path
         d="m 106.72951,63.974977 c -9.930578,11.055697 -14.1415,25.173591 -12.876578,38.940963 0.946016,6.73204 -3.275232,12.99991 -6.28027,19.01327 -5.525839,8.96441 -10.524606,18.75419 -9.013608,29.1121 -0.435852,5.96807 -3.562885,-0.0492 -3.233654,-3.05098 -1.497557,-8.44396 -2.138058,-17.20078 -0.09529,-25.56549 -1.029624,-8.1398 -3.46139,-16.96346 -11.388823,-22.31278 2.353987,9.66198 5.412913,20.55145 -0.269075,29.78267 -2.038573,3.09268 -6.598699,3.93829 -7.551724,7.6519 -9.566305,14.20934 -10.287072,31.92393 -3.024258,46.96712 1.511501,3.42622 3.482996,6.69688 5.194347,10.05452 -5.33026,-2.5806 -11.179552,-4.33182 -16.330939,-7.16051 7.136072,17.71676 20.704781,35.14614 42.125556,42.04126 8.423604,3.04064 17.609676,3.60507 26.509356,4.80535 19.50643,5.16339 43.7133,1.7707 56.5836,-12.62218 7.56153,-8.32693 9.66215,-19.56409 7.08809,-29.71409 -3.40625,5.84115 -9.30867,10.5752 -16.93137,12.07462 1.75394,-7.49928 -0.91639,-15.004 -5.48577,-21.41796 -4.93269,-6.84428 -6.09247,-15.49605 -2.15602,-22.89083 5.97277,-11.10032 10.4873,-24.53241 3.53136,-36.08559 -2.15263,-5.3331 -3.66802,-2.05939 -4.75859,1.71812 -4.54795,11.86234 -13.73201,21.95246 -24.12523,30.60564 0.71969,-12.10183 5.69931,-23.55159 7.81552,-35.44768 1.20837,-6.06017 -0.17978,-12.14211 -1.67618,-18.01068 -1.01861,-6.594559 -9.1244,-9.977345 -12.54434,-15.624502 -6.09461,-7.510711 -8.12163,-16.845895 -8.47749,-25.812592 -0.87624,0.982821 -1.75255,1.965663 -2.6287,2.94844 z"
         fill="url(#j)"
         id="path11"
         style="fill:url(#j);fill-rule:evenodd;stroke-width:0.252114;stroke-opacity:0.504" /><path
         d="m 118.34997,229.22477 c 11.85886,-5.67623 15.10998,-23.51567 16.6412,-43.30184 2.869,-19.13738 8.60725,-38.27475 46.4793,-41.35545 -15.4931,10.54166 -28.1172,23.51567 -22.3792,47.68014 -1.53022,35.19295 -32.32524,33.89536 -40.7413,36.97715 z"
         fill="url(#i)"
         stroke="#ffff00"
         id="path12"
         style="fill:url(#i);fill-rule:evenodd;stroke-width:0.252114;stroke-opacity:0.504" /><path
         d="m 177.10542,141.76872 c -16.1488,1.94139 -32.79503,10.16774 -37.5344,24.14052 -7.60637,17.46421 -3.40323,37.34182 -13.77723,54.11696 -3.93985,1.45174 -2.97665,7.67966 1.88897,6.4612 14.25204,-2.191 27.77804,-10.58586 31.38816,-22.90606 3.48237,-8.55543 1.50773,-17.60682 1.1373,-26.3939 0.47386,-12.74518 9.17703,-24.23849 20.60303,-32.10136 2.00001,-2.44246 -1.33564,-3.26402 -3.70508,-3.31703 z"
         fill="url(#h)"
         id="path13"
         style="fill:url(#h);fill-rule:evenodd;stroke-width:0.252114;stroke-opacity:0.504" /><path
         d="m 97.691663,216.08551 c -1.530216,-15.56898 -3.634233,-26.75966 19.510207,-40.86884 39.21133,-23.19128 19.89206,-36.65275 -4.59053,-60.81722 7.26834,24.00227 -4.39922,43.13964 -14.344997,55.95123 -6.503233,7.9468 -29.073115,24.16447 -0.5738,45.73483 z"
         fill="url(#f)"
         stroke="#ffff00"
         id="path14"
         style="fill:url(#f);fill-rule:evenodd;stroke-width:0.252114;stroke-opacity:0.504" /><path
         d="m 112.02159,110.37635 c 4.24245,16.36257 -0.12695,33.60035 -9.89278,47.97624 -6.062955,9.88285 -18.016659,17.45224 -19.155968,29.21008 -1.827166,10.24633 6.880197,18.78684 14.949196,25.40763 3.286532,3.50395 0.469541,-4.77955 0.916848,-6.71865 -1.311273,-10.08022 0.727752,-21.39075 10.321234,-28.30546 10.68062,-8.81027 25.91395,-14.91801 31.03017,-27.58046 3.46038,-11.18306 -5.76036,-21.20786 -13.80235,-29.14911 -4.85029,-4.99009 -9.96387,-9.77552 -15.04843,-14.59687 0.22769,1.25187 0.45537,2.50386 0.68306,3.75584 z"
         fill="url(#d)"
         id="path15"
         style="fill:url(#d);fill-rule:evenodd;stroke-width:0.252114;stroke-opacity:0.504" /></g></g></svg>
